<?xml version="1.0" encoding="UTF-8" standalone="no"?>
<!-- Created with Inkscape (http://www.inkscape.org/) -->

<svg
   xmlns:dc="http://purl.org/dc/elements/1.1/"
   xmlns:cc="http://creativecommons.org/ns#"
   xmlns:rdf="http://www.w3.org/1999/02/22-rdf-syntax-ns#"
   xmlns:svg="http://www.w3.org/2000/svg"
   xmlns="http://www.w3.org/2000/svg"
   xmlns:sodipodi="http://sodipodi.sourceforge.net/DTD/sodipodi-0.dtd"
   xmlns:inkscape="http://www.inkscape.org/namespaces/inkscape"
   width="31.024656mm"
   height="31.024675mm"
   viewBox="0 0 31.024656 31.024675"
   version="1.1"
   id="svg1143"
   inkscape:version="0.92.3 (2405546, 2018-03-11)"
   sodipodi:docname="icon.svg">
  <defs
     id="defs1137" />
  <sodipodi:namedview
     id="base"
     pagecolor="#ffffff"
     bordercolor="#666666"
     borderopacity="1.0"
     inkscape:pageopacity="0.0"
     inkscape:pageshadow="2"
     inkscape:zoom="1.4"
     inkscape:cx="-80.731675"
     inkscape:cy="43.004678"
     inkscape:document-units="mm"
     inkscape:current-layer="layer1"
     showgrid="false"
     fit-margin-top="0"
     fit-margin-left="0"
     fit-margin-right="0"
     fit-margin-bottom="0"
     inkscape:window-width="1920"
     inkscape:window-height="1001"
     inkscape:window-x="-9"
     inkscape:window-y="-9"
     inkscape:window-maximized="1" />
  <metadata
     id="metadata1140">
    <rdf:RDF>
      <cc:Work
         rdf:about="">
        <dc:format>image/svg+xml</dc:format>
        <dc:type
           rdf:resource="http://purl.org/dc/dcmitype/StillImage" />
        <dc:title></dc:title>
      </cc:Work>
    </rdf:RDF>
  </metadata>
  <g
     inkscape:label="Livello 1"
     inkscape:groupmode="layer"
     id="layer1"
     transform="translate(-86.541244,-105.35076)">
    <g
       id="g1097"
       transform="matrix(0.79650423,0,0,0.79650423,-2.6992673,97.066341)">
      <path
         d="M 150.44386,25.3106 A 19.471033,19.471033 0 0 1 136.09644,48.801052 19.471033,19.471033 0 0 1 112.59479,34.471975 19.471033,19.471033 0 0 1 126.9055,10.95914 19.471033,19.471033 0 0 1 150.42951,25.251488"
         sodipodi:open="true"
         sodipodi:end="6.0433596"
         sodipodi:start="6.0464838"
         sodipodi:ry="19.471033"
         sodipodi:rx="19.471033"
         sodipodi:cy="29.876507"
         sodipodi:cx="131.51575"
         sodipodi:type="arc"
         id="path1039"
         style="opacity:1;fill:#55ffdd;fill-opacity:1;stroke:#1c241f;stroke-width:0;stroke-linecap:round;stroke-linejoin:round;stroke-miterlimit:4;stroke-dasharray:none;stroke-dashoffset:0;stroke-opacity:1;paint-order:stroke markers fill" />
      <g
         style="fill:#00222b"
         transform="matrix(0.04388316,0,0,0.04388316,120.28161,18.642448)"
         id="g1095">
        <g
           style="fill:#00222b"
           id="g1045">
          <g
             style="fill:#00222b"
             id="g1043">
            <path
               style="fill:#00222b"
               inkscape:connector-curvature="0"
               d="M 91.522,56.263 H 91.401 C 72.882,56.534 57.82,71.828 57.82,90.356 v 48.72 H 7.536 c -4.162,0 -7.536,3.374 -7.536,7.536 0,4.162 3.374,7.536 7.536,7.536 H 57.821 V 193.77 H 7.536 c -4.162,0 -7.536,3.374 -7.536,7.536 0,4.162 3.374,7.536 7.536,7.536 h 50.285 v 39.621 H 7.536 C 3.374,248.464 0,251.838 0,256 c 0,4.162 3.374,7.536 7.536,7.536 h 50.285 v 39.621 H 7.536 c -4.162,0 -7.536,3.374 -7.536,7.536 0,4.162 3.374,7.536 7.536,7.536 h 50.285 v 39.622 H 7.536 c -4.162,0 -7.536,3.374 -7.536,7.536 0,4.162 3.374,7.536 7.536,7.536 h 50.285 v 25.77 c 0,4.16 3.376,7.536 7.536,7.536 4.16,0 7.536,-3.376 7.536,-7.536 V 90.357 c 0,-10.34 8.4,-18.87 18.74,-19.031 4.16,-0.06 7.486,-3.477 7.416,-7.647 -0.061,-4.12 -3.417,-7.416 -7.527,-7.416 z"
               id="path1041" />
          </g>
        </g>
        <g
           style="fill:#00222b"
           id="g1051">
          <g
             style="fill:#00222b"
             id="g1049">
            <path
               style="fill:#00222b"
               inkscape:connector-curvature="0"
               d="M 410.168,437.549 H 91.924 c -7.767,0 -14.68,-4.642 -17.624,-11.827 -1.578,-3.858 -5.969,-5.697 -9.827,-4.12 -3.859,1.578 -5.697,5.979 -4.12,9.827 5.265,12.872 17.655,21.191 31.571,21.191 h 47.153 v 51.842 c 0,4.162 3.374,7.536 7.536,7.536 4.162,0 7.536,-3.374 7.536,-7.536 V 452.62 h 39.622 v 51.842 c 0,4.162 3.374,7.536 7.536,7.536 4.162,0 7.536,-3.374 7.536,-7.536 V 452.62 h 39.621 v 51.842 c 0,4.162 3.374,7.536 7.536,7.536 4.162,0 7.536,-3.374 7.536,-7.536 V 452.62 h 39.621 v 51.842 c 0,4.162 3.374,7.536 7.536,7.536 4.162,0 7.536,-3.374 7.536,-7.536 V 452.62 h 39.622 v 51.842 c 0,4.162 3.374,7.536 7.536,7.536 4.162,0 7.536,-3.374 7.536,-7.536 V 452.62 h 37.245 c 4.16,0 7.536,-3.376 7.536,-7.536 0,-4.168 -3.376,-7.535 -7.536,-7.535 z"
               id="path1047" />
          </g>
        </g>
        <g
           style="fill:#00222b"
           id="g1057">
          <g
             style="fill:#00222b"
             id="g1055">
            <path
               style="fill:#00222b"
               inkscape:connector-curvature="0"
               d="M 358.209,128.138 H 153.791 c -13.284,0 -24.085,10.802 -24.085,24.085 v 204.429 c 0,13.284 10.802,24.085 24.085,24.085 H 358.21 c 13.284,0 24.085,-10.802 24.085,-24.085 V 152.223 c 0,-13.284 -10.802,-24.085 -24.086,-24.085 z m -213.432,24.085 c 0,-4.974 4.039,-9.013 9.013,-9.013 h 155.885 v 78.707 c -13.624,2.944 -24.386,13.706 -27.329,27.331 H 226.81 v -38.645 c 14.238,-2.783 25.01,-15.354 25.01,-30.396 0,-17.072 -13.897,-30.968 -30.978,-30.968 -15.042,0 -27.611,10.771 -30.396,24.999 h -45.669 z m 172.436,83.962 c 11.354,0 20.589,9.244 20.589,20.599 0,11.355 -9.234,20.589 -20.589,20.589 -11.436,0 -20.599,-9.325 -20.599,-20.589 0.001,-11.285 9.189,-20.599 20.599,-20.599 z m -96.371,-40.072 c -8.715,0 -15.906,-7.088 -15.906,-15.906 0,-8.762 7.134,-15.896 15.906,-15.896 8.772,0 15.906,7.134 15.906,15.896 0,8.848 -7.204,15.906 -15.906,15.906 z m -32.546,123.17 c -4.371,-2.452 -7.325,-7.144 -7.325,-12.5 0,-7.908 6.441,-14.339 14.349,-14.339 7.908,0 14.339,6.431 14.339,14.339 -0.001,10.958 -11.853,17.876 -21.363,12.5 z m 60.95,46.382 h -50.56 v -29.662 c 14.64,-1.668 26.045,-14.138 26.045,-29.22 0,-16.218 -13.193,-29.411 -29.411,-29.411 -16.228,0 -29.421,13.193 -29.421,29.411 0,12.058 7.295,22.458 17.715,26.989 v 31.893 h -29.823 c -4.974,0 -9.013,-4.049 -9.013,-9.013 V 189.31 h 46.452 c 0.064,0.104 4.114,15.471 20.508,20.509 v 46.965 c 0,4.16 3.376,7.536 7.536,7.536 h 29.972 z m 117.977,-9.013 c 0,4.964 -4.039,9.013 -9.013,9.013 h -93.892 v -32.59 h 102.905 z m 0,-38.649 H 264.318 V 264.32 h 18.028 c 3.467,16.057 17.785,28.125 34.867,28.125 19.664,0 35.661,-15.997 35.661,-35.661 0,-17.082 -12.068,-31.4 -28.125,-34.867 0,0 -0.001,0 -0.002,0 V 143.21 h 33.462 c 4.974,0 9.013,4.039 9.013,9.013 v 165.78 z"
               id="path1053" />
          </g>
        </g>
        <g
           style="fill:#00222b"
           id="g1063">
          <g
             style="fill:#00222b"
             id="g1061">
            <path
               style="fill:#00222b"
               inkscape:connector-curvature="0"
               d="m 504.464,208.843 c 4.162,0 7.536,-3.374 7.536,-7.536 0,-4.162 -3.374,-7.536 -7.536,-7.536 h -50.285 v -39.622 h 50.285 c 4.162,0 7.536,-3.374 7.536,-7.536 0,-4.162 -3.374,-7.536 -7.536,-7.536 h -50.285 v -48.72 c 0,-18.8 -15.293,-34.103 -34.103,-34.103 H 372.923 V 7.536 C 372.923,3.374 369.549,0 365.387,0 c -4.162,0 -7.536,3.374 -7.536,7.536 V 56.253 H 318.229 V 7.536 C 318.229,3.374 314.855,0 310.693,0 c -4.162,0 -7.536,3.374 -7.536,7.536 V 56.253 H 263.536 V 7.536 C 263.536,3.374 260.162,0 256,0 c -4.162,0 -7.536,3.374 -7.536,7.536 V 56.253 H 208.843 V 7.536 C 208.843,3.374 205.469,0 201.307,0 c -4.162,0 -7.536,3.374 -7.536,7.536 V 56.253 H 154.149 V 7.536 C 154.149,3.374 150.775,0 146.613,0 c -4.162,0 -7.536,3.374 -7.536,7.536 v 48.717 h -17.41 c -4.17,0 -7.536,3.376 -7.536,7.536 0,4.16 3.366,7.536 7.536,7.536 39.477,0 266.815,0 298.409,0 10.5,0 19.031,8.541 19.031,19.031 v 328.162 c 0,5.255 -2.09,10.149 -5.898,13.776 -3.014,2.874 -3.135,7.647 -0.261,10.651 1.487,1.557 3.467,2.341 5.456,2.341 1.869,0 3.738,-0.693 5.205,-2.08 6.813,-6.501 10.571,-15.273 10.571,-24.688 v -45.595 h 50.285 c 4.162,0 7.536,-3.374 7.536,-7.536 0,-4.162 -3.374,-7.536 -7.536,-7.536 H 454.18 v -39.622 h 50.285 c 4.162,0 7.536,-3.374 7.536,-7.536 0,-4.162 -3.374,-7.536 -7.536,-7.536 H 454.18 v -39.621 h 50.285 c 4.162,0 7.536,-3.374 7.536,-7.536 0,-4.162 -3.374,-7.536 -7.536,-7.536 H 454.18 v -39.621 z"
               id="path1059" />
          </g>
        </g>
        <g
           style="fill:#00222b"
           id="g1065" />
        <g
           style="fill:#00222b"
           id="g1067" />
        <g
           style="fill:#00222b"
           id="g1069" />
        <g
           style="fill:#00222b"
           id="g1071" />
        <g
           style="fill:#00222b"
           id="g1073" />
        <g
           style="fill:#00222b"
           id="g1075" />
        <g
           style="fill:#00222b"
           id="g1077" />
        <g
           style="fill:#00222b"
           id="g1079" />
        <g
           style="fill:#00222b"
           id="g1081" />
        <g
           style="fill:#00222b"
           id="g1083" />
        <g
           style="fill:#00222b"
           id="g1085" />
        <g
           style="fill:#00222b"
           id="g1087" />
        <g
           style="fill:#00222b"
           id="g1089" />
        <g
           style="fill:#00222b"
           id="g1091" />
        <g
           style="fill:#00222b"
           id="g1093" />
      </g>
    </g>
  </g>
</svg>
