<?xml version="1.0" encoding="UTF-8" standalone="no"?>
<!-- Created with Inkscape (http://www.inkscape.org/) -->

<svg
   xmlns:dc="http://purl.org/dc/elements/1.1/"
   xmlns:cc="http://creativecommons.org/ns#"
   xmlns:rdf="http://www.w3.org/1999/02/22-rdf-syntax-ns#"
   xmlns:svg="http://www.w3.org/2000/svg"
   xmlns="http://www.w3.org/2000/svg"
   xmlns:sodipodi="http://sodipodi.sourceforge.net/DTD/sodipodi-0.dtd"
   xmlns:inkscape="http://www.inkscape.org/namespaces/inkscape"
   width="182.19557mm"
   height="191.38524mm"
   viewBox="0 0 182.19557 191.38524"
   version="1.1"
   id="svg8"
   inkscape:version="0.92.3 (2405546, 2018-03-11)"
   sodipodi:docname="thingdir.svg">
  <defs
     id="defs2">
    <inkscape:perspective
       sodipodi:type="inkscape:persp3d"
       inkscape:vp_x="0 : 148.5 : 1"
       inkscape:vp_y="0 : 1000 : 0"
       inkscape:vp_z="210.00001 : 148.5 : 1"
       inkscape:persp3d-origin="105.00001 : 99.000001 : 1"
       id="perspective817" />
  </defs>
  <sodipodi:namedview
     id="base"
     pagecolor="#ffffff"
     bordercolor="#666666"
     borderopacity="1.0"
     inkscape:pageopacity="0.0"
     inkscape:pageshadow="2"
     inkscape:zoom="0.49497475"
     inkscape:cx="750.88969"
     inkscape:cy="201.00515"
     inkscape:document-units="mm"
     inkscape:current-layer="layer1"
     showgrid="false"
     showborder="true"
     inkscape:object-nodes="false"
     borderlayer="true"
     inkscape:showpageshadow="true"
     inkscape:window-width="1920"
     inkscape:window-height="1001"
     inkscape:window-x="-9"
     inkscape:window-y="-9"
     inkscape:window-maximized="1"
     fit-margin-top="0"
     fit-margin-left="0"
     fit-margin-right="0"
     fit-margin-bottom="0" />
  <metadata
     id="metadata5">
    <rdf:RDF>
      <cc:Work
         rdf:about="">
        <dc:format>image/svg+xml</dc:format>
        <dc:type
           rdf:resource="http://purl.org/dc/dcmitype/StillImage" />
        <dc:title />
      </cc:Work>
    </rdf:RDF>
  </metadata>
  <g
     inkscape:label="Livello 1"
     inkscape:groupmode="layer"
     id="layer1"
     transform="translate(-12.657765,-47.042388)">
    <g
       id="g2435"
       transform="translate(-64.679226,87.664405)">
      <path
         inkscape:transform-center-y="-2.7597243e-006"
         inkscape:transform-center-x="9.4295032e-006"
         d="m 211.8575,124.60619 -45.3053,26.15702 -45.3053,-26.15702 1e-5,-52.314049 45.30529,-26.157024 45.3053,26.157024 z"
         inkscape:randomized="0"
         inkscape:rounded="0"
         inkscape:flatsided="true"
         sodipodi:arg2="1.0471976"
         sodipodi:arg1="0.52359878"
         sodipodi:r2="45.30529"
         sodipodi:r1="52.314049"
         sodipodi:cy="98.449165"
         sodipodi:cx="166.5522"
         sodipodi:sides="6"
         id="path839"
         style="opacity:1;fill:#2ad4ff;fill-opacity:1;stroke:#1c241f;stroke-width:0;stroke-linecap:round;stroke-linejoin:round;stroke-miterlimit:4;stroke-dasharray:none;stroke-dashoffset:0;stroke-opacity:1;paint-order:stroke markers fill"
         sodipodi:type="star" />
      <path
         id="path841"
         d="m 166.55206,46.135168 -45.30503,26.157115 45.30503,26.156712 45.30542,-26.156712 z"
         style="opacity:1;fill:#00d4aa;fill-opacity:1;stroke:#1c241f;stroke-width:0;stroke-linecap:round;stroke-linejoin:round;stroke-miterlimit:4;stroke-dasharray:none;stroke-dashoffset:0;stroke-opacity:1;paint-order:stroke markers fill"
         inkscape:connector-curvature="0" />
      <path
         id="path848"
         d="M 121.24703,72.292283 98.594519,85.370839 143.89995,111.52755 166.55246,98.449397 Z"
         style="opacity:1;fill:#80e5ff;fill-opacity:1;stroke:#1c241f;stroke-width:0;stroke-linecap:round;stroke-linejoin:round;stroke-miterlimit:4;stroke-dasharray:none;stroke-dashoffset:0;stroke-opacity:1;paint-order:stroke markers fill"
         inkscape:connector-curvature="0" />
      <path
         inkscape:connector-curvature="0"
         style="opacity:1;fill:#80e5ff;fill-opacity:1;stroke:#1c241f;stroke-width:0;stroke-linecap:round;stroke-linejoin:round;stroke-miterlimit:4;stroke-dasharray:none;stroke-dashoffset:0;stroke-opacity:1;paint-order:stroke markers fill"
         d="M 143.89982,33.056875 166.55233,46.135431 121.24691,72.292142 98.5944,59.213988 Z"
         id="path862" />
      <path
         inkscape:connector-curvature="0"
         style="opacity:1;fill:#80e5ff;fill-opacity:1;stroke:#1c241f;stroke-width:0;stroke-linecap:round;stroke-linejoin:round;stroke-miterlimit:4;stroke-dasharray:none;stroke-dashoffset:0;stroke-opacity:1;paint-order:stroke markers fill"
         d="m 211.85736,72.292423 22.65251,13.078556 -45.30543,26.156711 -22.6525,-13.078154 z"
         id="path864" />
      <path
         id="path866"
         d="m 189.20457,33.057015 -22.65251,13.078557 45.30542,26.15671 22.65251,-13.078153 z"
         style="opacity:1;fill:#80e5ff;fill-opacity:1;stroke:#1c241f;stroke-width:0;stroke-linecap:round;stroke-linejoin:round;stroke-miterlimit:4;stroke-dasharray:none;stroke-dashoffset:0;stroke-opacity:1;paint-order:stroke markers fill"
         inkscape:connector-curvature="0" />
      <g
         transform="matrix(0.83531975,0,0,0.83531975,22.413997,29.993157)"
         id="g2178">
        <path
           style="opacity:1;fill:#55ffdd;fill-opacity:1;stroke:#1c241f;stroke-width:0;stroke-linecap:round;stroke-linejoin:round;stroke-miterlimit:4;stroke-dasharray:none;stroke-dashoffset:0;stroke-opacity:1;paint-order:stroke markers fill"
           id="path1875"
           sodipodi:type="arc"
           sodipodi:cx="131.51575"
           sodipodi:cy="29.876507"
           sodipodi:rx="19.471033"
           sodipodi:ry="19.471033"
           sodipodi:start="6.0464838"
           sodipodi:end="6.0433596"
           sodipodi:open="true"
           d="M 150.44386,25.3106 A 19.471033,19.471033 0 0 1 136.09644,48.801052 19.471033,19.471033 0 0 1 112.59479,34.471975 19.471033,19.471033 0 0 1 126.9055,10.95914 19.471033,19.471033 0 0 1 150.42951,25.251488" />
        <g
           id="g1702"
           transform="matrix(0.04388316,0,0,0.04388316,120.28161,18.642448)"
           style="fill:#00222b">
          <g
             id="g1618"
             style="fill:#00222b">
            <g
               id="g1616"
               style="fill:#00222b">
              <path
                 id="path1614"
                 d="M 91.522,56.263 H 91.401 C 72.882,56.534 57.82,71.828 57.82,90.356 v 48.72 H 7.536 c -4.162,0 -7.536,3.374 -7.536,7.536 0,4.162 3.374,7.536 7.536,7.536 H 57.821 V 193.77 H 7.536 c -4.162,0 -7.536,3.374 -7.536,7.536 0,4.162 3.374,7.536 7.536,7.536 h 50.285 v 39.621 H 7.536 C 3.374,248.464 0,251.838 0,256 c 0,4.162 3.374,7.536 7.536,7.536 h 50.285 v 39.621 H 7.536 c -4.162,0 -7.536,3.374 -7.536,7.536 0,4.162 3.374,7.536 7.536,7.536 h 50.285 v 39.622 H 7.536 c -4.162,0 -7.536,3.374 -7.536,7.536 0,4.162 3.374,7.536 7.536,7.536 h 50.285 v 25.77 c 0,4.16 3.376,7.536 7.536,7.536 4.16,0 7.536,-3.376 7.536,-7.536 V 90.357 c 0,-10.34 8.4,-18.87 18.74,-19.031 4.16,-0.06 7.486,-3.477 7.416,-7.647 -0.061,-4.12 -3.417,-7.416 -7.527,-7.416 z"
                 inkscape:connector-curvature="0"
                 style="fill:#00222b" />
            </g>
          </g>
          <g
             id="g1624"
             style="fill:#00222b">
            <g
               id="g1622"
               style="fill:#00222b">
              <path
                 id="path1620"
                 d="M 410.168,437.549 H 91.924 c -7.767,0 -14.68,-4.642 -17.624,-11.827 -1.578,-3.858 -5.969,-5.697 -9.827,-4.12 -3.859,1.578 -5.697,5.979 -4.12,9.827 5.265,12.872 17.655,21.191 31.571,21.191 h 47.153 v 51.842 c 0,4.162 3.374,7.536 7.536,7.536 4.162,0 7.536,-3.374 7.536,-7.536 V 452.62 h 39.622 v 51.842 c 0,4.162 3.374,7.536 7.536,7.536 4.162,0 7.536,-3.374 7.536,-7.536 V 452.62 h 39.621 v 51.842 c 0,4.162 3.374,7.536 7.536,7.536 4.162,0 7.536,-3.374 7.536,-7.536 V 452.62 h 39.621 v 51.842 c 0,4.162 3.374,7.536 7.536,7.536 4.162,0 7.536,-3.374 7.536,-7.536 V 452.62 h 39.622 v 51.842 c 0,4.162 3.374,7.536 7.536,7.536 4.162,0 7.536,-3.374 7.536,-7.536 V 452.62 h 37.245 c 4.16,0 7.536,-3.376 7.536,-7.536 0,-4.168 -3.376,-7.535 -7.536,-7.535 z"
                 inkscape:connector-curvature="0"
                 style="fill:#00222b" />
            </g>
          </g>
          <g
             id="g1630"
             style="fill:#00222b">
            <g
               id="g1628"
               style="fill:#00222b">
              <path
                 id="path1626"
                 d="M 358.209,128.138 H 153.791 c -13.284,0 -24.085,10.802 -24.085,24.085 v 204.429 c 0,13.284 10.802,24.085 24.085,24.085 H 358.21 c 13.284,0 24.085,-10.802 24.085,-24.085 V 152.223 c 0,-13.284 -10.802,-24.085 -24.086,-24.085 z m -213.432,24.085 c 0,-4.974 4.039,-9.013 9.013,-9.013 h 155.885 v 78.707 c -13.624,2.944 -24.386,13.706 -27.329,27.331 H 226.81 v -38.645 c 14.238,-2.783 25.01,-15.354 25.01,-30.396 0,-17.072 -13.897,-30.968 -30.978,-30.968 -15.042,0 -27.611,10.771 -30.396,24.999 h -45.669 z m 172.436,83.962 c 11.354,0 20.589,9.244 20.589,20.599 0,11.355 -9.234,20.589 -20.589,20.589 -11.436,0 -20.599,-9.325 -20.599,-20.589 0.001,-11.285 9.189,-20.599 20.599,-20.599 z m -96.371,-40.072 c -8.715,0 -15.906,-7.088 -15.906,-15.906 0,-8.762 7.134,-15.896 15.906,-15.896 8.772,0 15.906,7.134 15.906,15.896 0,8.848 -7.204,15.906 -15.906,15.906 z m -32.546,123.17 c -4.371,-2.452 -7.325,-7.144 -7.325,-12.5 0,-7.908 6.441,-14.339 14.349,-14.339 7.908,0 14.339,6.431 14.339,14.339 -0.001,10.958 -11.853,17.876 -21.363,12.5 z m 60.95,46.382 h -50.56 v -29.662 c 14.64,-1.668 26.045,-14.138 26.045,-29.22 0,-16.218 -13.193,-29.411 -29.411,-29.411 -16.228,0 -29.421,13.193 -29.421,29.411 0,12.058 7.295,22.458 17.715,26.989 v 31.893 h -29.823 c -4.974,0 -9.013,-4.049 -9.013,-9.013 V 189.31 h 46.452 c 0.064,0.104 4.114,15.471 20.508,20.509 v 46.965 c 0,4.16 3.376,7.536 7.536,7.536 h 29.972 z m 117.977,-9.013 c 0,4.964 -4.039,9.013 -9.013,9.013 h -93.892 v -32.59 h 102.905 z m 0,-38.649 H 264.318 V 264.32 h 18.028 c 3.467,16.057 17.785,28.125 34.867,28.125 19.664,0 35.661,-15.997 35.661,-35.661 0,-17.082 -12.068,-31.4 -28.125,-34.867 0,0 -0.001,0 -0.002,0 V 143.21 h 33.462 c 4.974,0 9.013,4.039 9.013,9.013 v 165.78 z"
                 inkscape:connector-curvature="0"
                 style="fill:#00222b" />
            </g>
          </g>
          <g
             id="g1636"
             style="fill:#00222b">
            <g
               id="g1634"
               style="fill:#00222b">
              <path
                 id="path1632"
                 d="m 504.464,208.843 c 4.162,0 7.536,-3.374 7.536,-7.536 0,-4.162 -3.374,-7.536 -7.536,-7.536 h -50.285 v -39.622 h 50.285 c 4.162,0 7.536,-3.374 7.536,-7.536 0,-4.162 -3.374,-7.536 -7.536,-7.536 h -50.285 v -48.72 c 0,-18.8 -15.293,-34.103 -34.103,-34.103 H 372.923 V 7.536 C 372.923,3.374 369.549,0 365.387,0 c -4.162,0 -7.536,3.374 -7.536,7.536 V 56.253 H 318.229 V 7.536 C 318.229,3.374 314.855,0 310.693,0 c -4.162,0 -7.536,3.374 -7.536,7.536 V 56.253 H 263.536 V 7.536 C 263.536,3.374 260.162,0 256,0 c -4.162,0 -7.536,3.374 -7.536,7.536 V 56.253 H 208.843 V 7.536 C 208.843,3.374 205.469,0 201.307,0 c -4.162,0 -7.536,3.374 -7.536,7.536 V 56.253 H 154.149 V 7.536 C 154.149,3.374 150.775,0 146.613,0 c -4.162,0 -7.536,3.374 -7.536,7.536 v 48.717 h -17.41 c -4.17,0 -7.536,3.376 -7.536,7.536 0,4.16 3.366,7.536 7.536,7.536 39.477,0 266.815,0 298.409,0 10.5,0 19.031,8.541 19.031,19.031 v 328.162 c 0,5.255 -2.09,10.149 -5.898,13.776 -3.014,2.874 -3.135,7.647 -0.261,10.651 1.487,1.557 3.467,2.341 5.456,2.341 1.869,0 3.738,-0.693 5.205,-2.08 6.813,-6.501 10.571,-15.273 10.571,-24.688 v -45.595 h 50.285 c 4.162,0 7.536,-3.374 7.536,-7.536 0,-4.162 -3.374,-7.536 -7.536,-7.536 H 454.18 v -39.622 h 50.285 c 4.162,0 7.536,-3.374 7.536,-7.536 0,-4.162 -3.374,-7.536 -7.536,-7.536 H 454.18 v -39.621 h 50.285 c 4.162,0 7.536,-3.374 7.536,-7.536 0,-4.162 -3.374,-7.536 -7.536,-7.536 H 454.18 v -39.621 z"
                 inkscape:connector-curvature="0"
                 style="fill:#00222b" />
            </g>
          </g>
          <g
             id="g1638"
             style="fill:#00222b" />
          <g
             id="g1640"
             style="fill:#00222b" />
          <g
             id="g1642"
             style="fill:#00222b" />
          <g
             id="g1644"
             style="fill:#00222b" />
          <g
             id="g1646"
             style="fill:#00222b" />
          <g
             id="g1648"
             style="fill:#00222b" />
          <g
             id="g1650"
             style="fill:#00222b" />
          <g
             id="g1652"
             style="fill:#00222b" />
          <g
             id="g1654"
             style="fill:#00222b" />
          <g
             id="g1656"
             style="fill:#00222b" />
          <g
             id="g1658"
             style="fill:#00222b" />
          <g
             id="g1660"
             style="fill:#00222b" />
          <g
             id="g1662"
             style="fill:#00222b" />
          <g
             id="g1664"
             style="fill:#00222b" />
          <g
             id="g1666"
             style="fill:#00222b" />
        </g>
      </g>
      <g
         transform="matrix(0.75297946,0,0,0.75297946,112.16026,-173.20754)"
         id="g1987">
        <path
           d="M 91.163751,190.99083 A 19.471033,19.471033 0 0 1 76.816323,214.48128 19.471033,19.471033 0 0 1 53.314672,200.1522 19.471033,19.471033 0 0 1 67.625389,176.63937 19.471033,19.471033 0 0 1 91.149394,190.93171"
           sodipodi:open="true"
           sodipodi:end="6.0433596"
           sodipodi:start="6.0464838"
           sodipodi:ry="19.471033"
           sodipodi:rx="19.471033"
           sodipodi:cy="195.55673"
           sodipodi:cx="72.235634"
           sodipodi:type="arc"
           id="path1916"
           style="opacity:1;fill:#55ffdd;fill-opacity:1;stroke:#1c241f;stroke-width:0;stroke-linecap:round;stroke-linejoin:round;stroke-miterlimit:4;stroke-dasharray:none;stroke-dashoffset:0;stroke-opacity:1;paint-order:stroke markers fill" />
        <g
           id="g1774"
           transform="matrix(0.03942596,0,0,0.03942596,62.142596,185.46367)">
          <g
             id="g1708">
            <g
               id="g1706">
              <path
                 id="path1704"
                 d="M 463.573,30.904 H 48.427 C 21.725,30.904 0,52.629 0,79.331 V 302.119 329.9 c 0,26.702 21.725,48.427 48.427,48.427 h 148.072 l -4.353,29.211 h -11.044 c -28.063,0 -50.886,22.833 -50.886,50.886 0,12.505 10.167,22.672 22.672,22.672 h 206.223 c 12.505,0 22.672,-10.167 22.672,-22.672 0,-28.053 -22.823,-50.886 -50.886,-50.886 h -10.812 l -4.353,-29.211 h 147.84 c 26.702,0 48.427,-21.725 48.427,-48.427 V 302.119 79.331 C 512,52.629 490.275,30.904 463.573,30.904 Z M 330.898,422.653 c 19.729,0 35.771,16.052 35.771,35.771 0,4.172 -3.386,7.557 -7.557,7.557 H 152.889 c -4.172,0 -7.557,-3.386 -7.557,-7.557 0,-19.719 16.042,-35.771 35.771,-35.771 8.329,0 15.739,0 24.083,0 10.746,0 107.727,0 125.712,0 z m -123.466,-15.115 4.343,-29.211 h 88.682 l 4.353,29.211 z M 496.885,329.9 c 0,18.369 -14.943,33.312 -33.312,33.312 H 307.672 c -0.232,-0.02 -0.464,-0.03 -0.695,-0.03 H 205.266 c -0.232,0 -0.464,0.01 -0.695,0.03 H 48.427 c -18.369,0 -33.312,-14.943 -33.312,-33.312 v -20.223 c 17.335,0 460.283,0 481.771,0 V 329.9 Z M 127.315,203.018 c -25.043,-8.121 -46.853,1.621 -62.221,0.937 28.395,-63.431 87.503,-110.225 158.3,-121.35 -38.975,23.69 -57.375,54.785 -57.375,71.965 0,11.255 7.134,18.52 18.158,18.52 12.995,0 30.643,-12.799 63.935,-11.205 4.172,0.181 7.708,-3.023 7.91,-7.185 0.201,-4.172 -3.013,-7.718 -7.184,-7.92 -44.541,-2.098 -67.703,19.263 -67.703,7.789 0,-14.258 23.659,-51.5 78.293,-72.933 1.008,-0.383 2.207,-0.887 3.537,-1.461 43.147,1.411 83.029,15.971 115.757,39.792 -8.58,25.948 -10.291,54.205 -5.784,80.681 0.635,3.688 3.829,6.288 7.446,6.288 4.702,0 8.246,-4.228 7.457,-8.827 -3.732,-21.78 -2.863,-45.726 3.597,-68.126 43.693,37.25 68.754,89.227 72.953,142.53 -31.872,10.079 -56.661,-15.377 -68.963,-46.785 -1.522,-3.889 -5.905,-5.804 -9.794,-4.282 -3.89,1.522 -5.804,5.905 -4.282,9.794 14.674,37.462 45.126,66.409 83.684,56.79 0.031,1.098 -0.005,4.536 -0.06,6.529 H 310.674 c -0.374,-15.866 -1.326,-33.121 9.24,-45.968 26.228,-31.876 6.333,-78.775 -39.298,-95.534 -3.92,-1.441 -8.263,0.574 -9.704,4.484 -1.431,3.92 0.574,8.263 4.494,9.704 38.502,14.14 50.894,49.783 32.839,71.734 -13.22,16.06 -13.308,35.084 -12.686,55.581 h -93.448 c -14.782,-34.491 -30.017,-58.785 -46.472,-74.162 -3.053,-2.852 -7.839,-2.69 -10.681,0.363 -2.852,3.043 -2.69,7.829 0.363,10.681 13.764,12.857 27.297,34.068 40.285,63.118 H 47.026 c -0.05,-1.824 -0.07,-3.648 -0.07,-5.461 0,-24.737 4.323,-48.498 12.253,-70.545 19.533,3.183 40.599,-8.607 63.431,-1.159 3.97,1.29 8.232,-0.877 9.522,-4.847 1.299,-3.967 -0.877,-8.23 -4.847,-9.53 z m 369.57,91.544 h -16.797 c 1.73,-62.722 -22.637,-125.094 -74.636,-172.537 -1.737,-0.869 -75.768,-76.239 -193.647,-52.73 -0.076,0.015 -0.147,0.039 -0.223,0.056 -102.545,20.497 -179.741,111.101 -179.741,219.75 0,1.814 0.02,3.638 0.071,5.461 H 15.115 V 79.331 c 0,-18.369 14.943,-33.312 33.312,-33.312 h 415.146 c 18.369,0 33.312,14.943 33.312,33.312 z"
                 inkscape:connector-curvature="0" />
            </g>
          </g>
          <g
             id="g1714">
            <g
               id="g1712">
              <path
                 id="path1710"
                 d="m 273.466,329.728 h -34.932 c -4.174,0 -7.557,3.384 -7.557,7.557 0,4.174 3.383,7.557 7.557,7.557 h 34.932 c 4.175,0 7.557,-3.384 7.557,-7.557 10e-4,-4.174 -3.382,-7.557 -7.557,-7.557 z"
                 inkscape:connector-curvature="0" />
            </g>
          </g>
          <g
             id="g1716" />
          <g
             id="g1718" />
          <g
             id="g1720" />
          <g
             id="g1722" />
          <g
             id="g1724" />
          <g
             id="g1726" />
          <g
             id="g1728" />
          <g
             id="g1730" />
          <g
             id="g1732" />
          <g
             id="g1734" />
          <g
             id="g1736" />
          <g
             id="g1738" />
          <g
             id="g1740" />
          <g
             id="g1742" />
          <g
             id="g1744" />
        </g>
      </g>
      <g
         transform="matrix(0.6603643,0,0,0.6603643,85.653309,-103.48939)"
         id="g2039">
        <path
           d="m 141.43459,189.8569 a 19.471033,19.471033 0 0 1 -14.34743,23.49045 19.471033,19.471033 0 0 1 -23.50165,-14.32908 19.471033,19.471033 0 0 1 14.31071,-23.51283 19.471033,19.471033 0 0 1 23.52401,14.29235"
           sodipodi:open="true"
           sodipodi:end="6.0433596"
           sodipodi:start="6.0464838"
           sodipodi:ry="19.471033"
           sodipodi:rx="19.471033"
           sodipodi:cy="194.42281"
           sodipodi:cx="122.50647"
           sodipodi:type="arc"
           id="path1950"
           style="opacity:1;fill:#55ffdd;fill-opacity:1;stroke:#1c241f;stroke-width:0;stroke-linecap:round;stroke-linejoin:round;stroke-miterlimit:4;stroke-dasharray:none;stroke-dashoffset:0;stroke-opacity:1;paint-order:stroke markers fill" />
        <g
           id="g1495"
           transform="matrix(0.04321551,0,0,0.04321551,111.44331,183.3596)">
          <g
             id="g1348">
            <g
               id="g1346">
              <path
                 id="path1344"
                 d="m 367.168,52.977 c -4.148,0 -7.51,3.362 -7.51,7.51 0,4.148 3.361,7.51 7.51,7.51 13.743,0 24.923,11.18 24.923,24.923 0,4.147 3.361,7.51 7.51,7.51 4.148,0 7.51,-3.362 7.51,-7.51 C 407.11,70.895 389.193,52.977 367.168,52.977 Z"
                 inkscape:connector-curvature="0" />
            </g>
          </g>
          <g
             id="g1354">
            <g
               id="g1352">
              <path
                 id="path1350"
                 d="m 367.168,0 c -4.148,0 -7.51,3.362 -7.51,7.51 0,4.148 3.361,7.51 7.51,7.51 42.954,0 77.9,34.945 77.9,77.9 0,4.147 3.361,7.51 7.51,7.51 4.149,0 7.51,-3.362 7.51,-7.51 C 460.087,41.683 418.404,0 367.168,0 Z"
                 inkscape:connector-curvature="0" />
            </g>
          </g>
          <g
             id="g1360">
            <g
               id="g1358">
              <path
                 id="path1356"
                 d="m 367.168,25.491 c -4.148,0 -7.51,3.362 -7.51,7.51 0,4.148 3.361,7.51 7.51,7.51 28.898,0 52.408,23.511 52.408,52.408 0,4.147 3.361,7.51 7.51,7.51 4.149,0 7.51,-3.362 7.51,-7.51 -10e-4,-37.18 -30.249,-67.428 -67.428,-67.428 z"
                 inkscape:connector-curvature="0" />
            </g>
          </g>
          <g
             id="g1366">
            <g
               id="g1364">
              <path
                 id="path1362"
                 d="M 334.038,69.065 H 96.97 c -24.842,0 -45.059,20.216 -45.059,45.059 v 310.223 c 0,24.842 20.216,45.059 45.059,45.059 h 1.492 v 16.121 c 0,14.599 11.875,26.474 26.464,26.474 14.599,0 26.474,-11.875 26.474,-26.474 v -16.121 h 128.217 v 16.121 c 0,14.599 11.875,26.474 26.464,26.474 14.599,0 26.474,-11.875 26.474,-26.474 v -16.121 h 1.482 c 24.852,0 45.069,-20.216 45.069,-45.059 V 114.123 C 379.107,89.281 358.891,69.065 334.038,69.065 Z M 135.38,485.526 c 0,5.757 -4.686,10.454 -10.454,10.454 -5.757,0 -10.444,-4.696 -10.444,-10.454 v -16.121 h 20.897 v 16.121 z m 181.156,0 c 0,5.757 -4.686,10.454 -10.454,10.454 -5.758,0 -10.444,-4.696 -10.444,-10.454 v -16.121 h 20.897 v 16.121 z m 46.55,-303.815 h -62.972 c -4.416,0 -8.01,3.585 -8.01,8.01 0,4.425 3.595,8.01 8.01,8.01 h 62.972 v 226.614 c 0,16.011 -13.027,29.038 -29.048,29.038 h -1.482 c -23.855,0 -195.694,0 -234.094,0 H 96.97 c -16.011,0 -29.038,-13.027 -29.038,-29.038 V 197.732 h 202.143 c 4.426,0 8.01,-3.585 8.01,-8.01 0,-4.425 -3.585,-8.01 -8.01,-8.01 H 67.933 v -67.588 c 0,-16.011 13.027,-29.038 29.038,-29.038 h 237.068 c 16.021,0 29.048,13.027 29.048,29.038 v 67.587 z"
                 inkscape:connector-curvature="0" />
            </g>
          </g>
          <g
             id="g1372">
            <g
               id="g1370">
              <path
                 id="path1368"
                 d="m 219.029,109.557 c -13.187,0 -23.911,10.734 -23.911,23.921 0,13.187 10.724,23.911 23.911,23.911 13.187,0 23.921,-10.724 23.921,-23.911 0,-13.187 -10.734,-23.921 -23.921,-23.921 z m 0,31.812 c -4.346,0 -7.89,-3.545 -7.89,-7.89 0,-4.356 3.545,-7.9 7.89,-7.9 4.356,0 7.9,3.545 7.9,7.9 0,4.345 -3.544,7.89 -7.9,7.89 z"
                 inkscape:connector-curvature="0" />
            </g>
          </g>
          <g
             id="g1378">
            <g
               id="g1376">
              <path
                 id="path1374"
                 d="m 274.471,109.557 c -13.187,0 -23.911,10.734 -23.911,23.921 0,13.187 10.724,23.911 23.911,23.911 13.187,0 23.921,-10.724 23.921,-23.911 0,-13.187 -10.734,-23.921 -23.921,-23.921 z m 0,31.812 c -4.346,0 -7.89,-3.545 -7.89,-7.89 0,-4.356 3.545,-7.9 7.89,-7.9 4.356,0 7.9,3.545 7.9,7.9 0,4.345 -3.544,7.89 -7.9,7.89 z"
                 inkscape:connector-curvature="0" />
            </g>
          </g>
          <g
             id="g1384">
            <g
               id="g1382">
              <path
                 id="path1380"
                 d="m 329.913,109.557 c -13.187,0 -23.911,10.734 -23.911,23.921 0,13.187 10.724,23.911 23.911,23.911 13.187,0 23.911,-10.724 23.911,-23.911 0,-13.187 -10.724,-23.921 -23.911,-23.921 z m 0,31.812 c -4.356,0 -7.89,-3.545 -7.89,-7.89 0,-4.356 3.535,-7.9 7.89,-7.9 4.355,0 7.89,3.545 7.89,7.9 0,4.345 -3.534,7.89 -7.89,7.89 z"
                 inkscape:connector-curvature="0" />
            </g>
          </g>
          <g
             id="g1390">
            <g
               id="g1388">
              <path
                 id="path1386"
                 d="m 343.741,205.442 h -30.76 c -6.869,0 -12.456,5.587 -12.456,12.456 v 15.04 c 0,6.869 5.587,12.456 12.456,12.456 h 30.76 c 6.869,0 12.456,-5.587 12.456,-12.456 v -15.04 c 0,-6.869 -5.587,-12.456 -12.456,-12.456 z m -3.565,23.931 h -23.631 v -7.91 h 23.631 z"
                 inkscape:connector-curvature="0" />
            </g>
          </g>
          <g
             id="g1396">
            <g
               id="g1394">
              <path
                 id="path1392"
                 d="m 162.976,104.27 h -62.291 c -12.686,0 -23.01,10.323 -23.01,23.01 v 17.172 c 0,12.686 10.323,23.01 23.01,23.01 h 62.291 c 12.686,0 23.01,-10.323 23.01,-23.01 V 127.28 c 0,-12.686 -10.323,-23.01 -23.01,-23.01 z m 6.989,40.183 c 0,3.855 -3.134,6.989 -6.989,6.989 h -62.291 c -3.855,0 -6.989,-3.134 -6.989,-6.989 V 127.28 c 0,-3.855 3.134,-6.989 6.989,-6.989 h 62.291 c 3.855,0 6.989,3.134 6.989,6.989 z"
                 inkscape:connector-curvature="0" />
            </g>
          </g>
          <g
             id="g1402">
            <g
               id="g1400">
              <path
                 id="path1398"
                 d="m 219.279,247.336 c -4.416,-0.17 -8.151,3.254 -8.331,7.67 -0.19,4.426 3.244,8.161 7.66,8.341 37.278,1.561 63.82,35.288 58.085,70.952 -16.359,-4.103 -33.672,-4.465 -50.165,-1.081 -6.829,1.402 -13.558,-2.373 -16.021,-8.972 -7.69,-20.637 -24.802,-33.624 -41.524,-39.161 6.238,-7.39 14.279,-13.347 23.661,-17.202 4.085,-1.682 6.048,-6.368 4.366,-10.454 -1.682,-4.095 -6.368,-6.048 -10.454,-4.366 -65.44,26.917 -62.727,119.011 1.081,143.807 13.123,5.131 27.227,6.469 40.122,4.456 0.01,0.01 0.01,0.01 0.02,0 28.391,-4.506 53.589,-24.349 62.531,-54.681 0.01,-0.03 0.02,-0.06 0.02,-0.09 14.113,-47.798 -20.187,-97.076 -71.051,-99.219 z m -11.024,138.37 c -39.12,-4.991 -66.215,-46.948 -48.153,-86.552 13.818,3.304 28.978,13.467 35.396,30.69 5.237,14.038 19.636,22.059 34.245,19.075 13.619,-2.81 28.282,-2.674 42.405,0.771 -11.81,25.925 -37.933,39.128 -63.893,36.016 z"
                 inkscape:connector-curvature="0" />
            </g>
          </g>
          <g
             id="g1408">
            <g
               id="g1406">
              <path
                 id="path1404"
                 d="m 318.839,336.522 c -4.346,-0.841 -8.551,1.993 -9.392,6.338 -10.398,53.545 -63.529,87.675 -116.842,74.156 -37.106,-9.396 -64.423,-39.732 -70.549,-76.59 -0.684,-4.115 -4.179,-7.168 -8.351,-7.168 h -8.624 -0.551 c -4.7,0 -8.511,-3.811 -8.511,-8.511 0,-4.7 3.811,-8.511 8.511,-8.511 h 0.561 8.699 c 4.14,0 7.612,-3.026 8.296,-7.109 9.268,-55.313 63.468,-90.289 117.289,-76.66 38.71,9.813 67.398,43.096 71.363,82.818 0.441,4.406 4.346,7.61 8.761,7.179 4.406,-0.441 7.62,-4.366 7.179,-8.771 -5.611,-56.177 -53.141,-100.18 -110.764,-100.18 -53.767,0 -97.977,38.27 -108.391,86.703 H 96.019 c -8.849,0 -16.021,7.172 -16.021,16.021 v 17.022 c 0,8.849 7.172,16.021 16.021,16.021 h 11.455 c 11.453,50.986 56.876,86.703 108.591,86.703 54.13,0 99.29,-38.753 109.102,-90.057 0.851,-4.347 -1.983,-8.553 -6.328,-9.404 z"
                 inkscape:connector-curvature="0" />
            </g>
          </g>
          <g
             id="g1410" />
          <g
             id="g1412" />
          <g
             id="g1414" />
          <g
             id="g1416" />
          <g
             id="g1418" />
          <g
             id="g1420" />
          <g
             id="g1422" />
          <g
             id="g1424" />
          <g
             id="g1426" />
          <g
             id="g1428" />
          <g
             id="g1430" />
          <g
             id="g1432" />
          <g
             id="g1434" />
          <g
             id="g1436" />
          <g
             id="g1438" />
        </g>
      </g>
      <g
         transform="translate(66.901786,-185.57294)"
         id="g2073">
        <path
           d="m 192.08339,190.61285 a 19.471033,19.471033 0 0 1 -14.34743,23.49045 19.471033,19.471033 0 0 1 -23.50165,-14.32907 19.471033,19.471033 0 0 1 14.31072,-23.51284 19.471033,19.471033 0 0 1 23.524,14.29235"
           sodipodi:open="true"
           sodipodi:end="6.0433596"
           sodipodi:start="6.0464838"
           sodipodi:ry="19.471033"
           sodipodi:rx="19.471033"
           sodipodi:cy="195.17876"
           sodipodi:cx="173.15527"
           sodipodi:type="arc"
           id="path1952"
           style="opacity:1;fill:#55ffdd;fill-opacity:1;stroke:#1c241f;stroke-width:0;stroke-linecap:round;stroke-linejoin:round;stroke-miterlimit:4;stroke-dasharray:none;stroke-dashoffset:0;stroke-opacity:1;paint-order:stroke markers fill" />
        <g
           id="g1189"
           transform="matrix(0.05038314,0,0,0.05038314,160.25718,182.28066)">
          <g
             id="g1096">
            <g
               id="g1094">
              <path
                 id="path1092"
                 d="m 382.575,230.788 v -52.242 c 0,-10.401 -2.736,-20.661 -7.926,-29.674 -2.072,-3.611 -6.679,-4.858 -10.3,-2.786 -3.611,2.082 -4.848,6.689 -2.776,10.3 3.873,6.729 5.915,14.394 5.915,22.16 v 154.908 c 0,24.685 -20.078,44.762 -44.762,44.762 -34.45,0 -103.233,0 -137.687,0 h -17.221 c -24.685,0 -44.762,-20.078 -44.762,-44.762 V 178.546 c 0,-24.685 20.078,-44.762 44.762,-44.762 30.874,0 122.674,0 154.908,0 7.182,0 14.052,1.67 20.42,4.969 3.692,1.911 8.248,0.463 10.17,-3.239 1.911,-3.702 0.463,-8.248 -3.239,-10.17 -18.108,-9.358 -32.57,-5.884 -44.571,-6.649 V 38.113 C 305.504,17.1 288.403,0 267.38,0 h -44.219 c -21.023,0 -38.123,17.1 -38.123,38.113 v 80.582 h -17.221 c -33.003,0 -59.851,26.847 -59.851,59.851 v 154.908 c 0,33.003 26.847,59.851 59.851,59.851 h 17.221 v 80.582 c 0,21.013 17.1,38.113 38.123,38.113 h 44.219 c 21.023,0 38.123,-17.1 38.123,-38.113 v -80.582 h 17.221 c 33.003,0 59.851,-26.847 59.851,-59.851 v -58.277 c 1.242,0.279 2.53,0.439 3.856,0.439 9.706,0 17.603,-7.897 17.603,-17.603 v -10.059 c 0.001,-11.119 -10.316,-19.668 -21.459,-17.166 z M 200.126,38.113 c 0,-12.694 10.331,-23.025 23.035,-23.025 h 44.219 c 12.704,0 23.035,10.331 23.035,23.025 v 80.582 h -90.289 z m 90.289,435.774 c 0,12.694 -10.331,23.025 -23.035,23.025 h -44.219 c -12.704,0 -23.035,-10.331 -23.035,-23.025 v -80.582 h 90.289 z m 98.531,-215.875 c 0,1.363 -1.152,2.515 -2.515,2.515 -1.363,0 -2.515,-1.152 -2.515,-2.515 v -10.059 c 0,-1.363 1.152,-2.515 2.515,-2.515 1.363,0 2.515,1.152 2.515,2.515 z"
                 inkscape:connector-curvature="0" />
            </g>
          </g>
          <g
             id="g1102">
            <g
               id="g1100">
              <circle
                 id="circle1098"
                 r="10.059"
                 cy="48.113998"
                 cx="245.26801" />
            </g>
          </g>
          <g
             id="g1108">
            <g
               id="g1106">
              <circle
                 id="circle1104"
                 r="10.059"
                 cy="85.330002"
                 cx="245.26801" />
            </g>
          </g>
          <g
             id="g1114">
            <g
               id="g1112">
              <path
                 id="path1110"
                 d="m 297.045,298.532 c -0.001,0.009 0,0.018 -0.001,0.027 0.01,-0.05 0.01,-0.091 0.02,-0.131 -0.005,0.036 -0.013,0.069 -0.019,0.104 z"
                 inkscape:connector-curvature="0" />
            </g>
          </g>
          <g
             id="g1120">
            <g
               id="g1118">
              <path
                 id="path1116"
                 d="m 350.829,271.471 c 4.174,0 7.544,-3.38 7.544,-7.544 v -69.779 c 0,-27.461 -22.341,-49.802 -49.802,-49.802 -13.965,0 -111.516,0 -126.602,0 -18.056,0 -34.754,9.868 -43.575,25.741 -2.022,3.641 -0.714,8.238 2.937,10.26 3.641,2.022 8.228,0.714 10.25,-2.937 6.166,-11.085 17.804,-17.975 30.388,-17.975 42.053,0 84.273,0 126.602,0 19.142,0 34.713,15.571 34.713,34.713 v 44.591 H 323.6 c -4.265,-17.231 -9.908,-40.377 -10.471,-43.545 -0.86,-8.13 -13.276,-10.143 -15.159,0.604 -1.73,9.972 -9.207,57.563 -10.512,65.956 -0.573,-2.143 -1.147,-4.285 -1.72,-6.408 9.657,-32.291 -18.582,-56.473 -43.978,-38.123 -8.329,-5.905 -18.197,-7.806 -26.888,-4.999 l -5.553,-13.419 c -2.685,-6.534 -12.104,-6.066 -14.173,0.654 l -16.346,52.92 -3.36,-8.017 c -1.177,-2.796 -3.913,-4.617 -6.951,-4.617 H 147.255 V 203.02 c 0,-4.164 -3.38,-7.544 -7.544,-7.544 -4.174,0 -7.544,3.38 -7.544,7.544 v 114.833 c 0,27.461 22.341,49.802 49.802,49.802 114.789,0 11.985,0 126.602,0 27.461,0 49.802,-22.341 49.802,-49.802 v -23.749 c 0,-4.174 -3.37,-7.544 -7.544,-7.544 -4.164,0 -7.544,3.37 -7.544,7.544 v 23.749 c 0,19.142 -15.571,34.713 -34.713,34.713 -28.448,0 -101.002,0 -126.602,0 -19.142,0 -34.713,-15.571 -34.713,-34.713 v -63.019 h 16.215 l 9.455,22.532 c 2.743,6.49 12.1,6.015 14.173,-0.694 l 8.661,-28.054 c 0.553,3.792 1.63,7.584 3.189,11.246 5.724,13.419 32.923,34.371 38.314,38.435 2.621,1.976 6.197,2.013 8.832,0.181 2.334,-1.609 17.925,-12.594 28.879,-25.037 1.097,4.104 5.886,21.954 7.122,26.043 2.514,8.358 13.597,7.901 14.949,-0.953 0.019,-0.202 0.029,-0.404 0.029,-0.617 0,0.07 0.01,0.231 -0.01,0.483 0.594,-4.345 5.683,-36.896 9.958,-63.854 0.996,4.064 2.112,8.56 3.35,13.549 0.835,3.37 3.853,5.734 7.323,5.734 h 25.59 v 10.099 c -10e-4,4.164 3.38,7.544 7.543,7.544 z m -80.893,-16.829 c -4.013,8.429 -17.694,20.5 -27.974,28.215 -11.719,-9.284 -26.435,-22.582 -29.131,-28.919 -1.811,-4.225 -2.625,-8.741 -2.384,-12.926 0.846,-16.292 15.392,-19.443 25.952,-8.59 2.934,3.018 7.842,3.078 10.844,-0.03 4.474,-4.644 10.814,-7.949 16.798,-5.573 9.477,3.796 10.239,18.551 5.895,27.823 z"
                 inkscape:connector-curvature="0" />
            </g>
          </g>
          <g
             id="g1122" />
          <g
             id="g1124" />
          <g
             id="g1126" />
          <g
             id="g1128" />
          <g
             id="g1130" />
          <g
             id="g1132" />
          <g
             id="g1134" />
          <g
             id="g1136" />
          <g
             id="g1138" />
          <g
             id="g1140" />
          <g
             id="g1142" />
          <g
             id="g1144" />
          <g
             id="g1146" />
          <g
             id="g1148" />
          <g
             id="g1150" />
        </g>
      </g>
      <g
         transform="translate(-6.047619,31.75)"
         id="g2107">
        <g
           transform="translate(-59.333835,-261.92414)"
           id="g2212">
          <path
             style="opacity:1;fill:#55ffdd;fill-opacity:1;stroke:#1c241f;stroke-width:0;stroke-linecap:round;stroke-linejoin:round;stroke-miterlimit:4;stroke-dasharray:none;stroke-dashoffset:0;stroke-opacity:1;paint-order:stroke markers fill"
             id="path1954"
             sodipodi:type="arc"
             sodipodi:cx="162.19397"
             sodipodi:cy="239.77995"
             sodipodi:rx="19.471033"
             sodipodi:ry="19.471033"
             sodipodi:start="6.0464838"
             sodipodi:end="6.0433596"
             sodipodi:open="true"
             d="m 181.12209,235.21405 a 19.471033,19.471033 0 0 1 -14.34743,23.49045 19.471033,19.471033 0 0 1 -23.50165,-14.32908 19.471033,19.471033 0 0 1 14.31071,-23.51283 19.471033,19.471033 0 0 1 23.52401,14.29234" />
          <g
             transform="matrix(0.03623993,0,0,0.03623993,152.91652,230.50247)"
             id="g1873">
            <g
               id="g1780">
              <g
                 id="g1778">
                <path
                   inkscape:connector-curvature="0"
                   d="m 361.812,38.209 c -64.24,-56.706 -174.558,-49.916 -228.371,17.847 -2.591,3.262 -2.047,8.007 1.215,10.597 3.263,2.592 8.008,2.047 10.598,-1.216 70.312,-88.529 249.74,-60.842 249.74,87.479 0,44.258 -16.527,67.092 -34.024,91.267 -17.343,23.962 -35.245,48.698 -37.042,93.798 H 188.107 C 186.506,293.15 168.575,268.4 151.207,244.427 133.621,220.153 117.01,197.225 117.01,152.948 v -0.162 c 0.022,-23.33 4.495,-44.614 13.295,-63.259 1.778,-3.767 0.166,-8.263 -3.603,-10.04 -3.766,-1.779 -8.264,-0.167 -10.041,3.602 -9.756,20.67 -14.714,44.115 -14.738,69.692 v 0.169 c 0,49.168 18.844,75.177 37.066,100.33 17.56,24.238 34.147,47.132 34.147,91.277 v 0.861 c -0.014,1.017 -0.012,93.729 -0.012,94.216 0,16.896 12.727,30.868 29.095,32.856 v 6.405 c 0,18.255 14.853,33.108 33.108,33.108 h 42 c 18.255,0 33.108,-14.853 33.108,-33.108 v -6.49 c 16.044,-2.283 28.422,-16.106 28.422,-32.77 v -93.949 c 10e-4,-0.06 0.008,-0.121 0.008,-0.181 0,-45.05 16.672,-68.085 34.324,-92.474 18.136,-25.057 36.889,-50.969 36.889,-100.112 0.003,-47.17 -16.689,-86.836 -48.266,-114.71 z m -66.461,440.683 h -10e-4 c 0,9.938 -8.085,18.022 -18.022,18.022 h -42 c -9.938,0 -18.022,-8.084 -18.022,-18.022 v -6.152 h 78.044 v 6.152 z m 28.422,-101.888 h -31.986 c -4.166,0 -7.543,3.376 -7.543,7.543 0,4.167 3.377,7.543 7.543,7.543 h 31.986 v 23.872 h -74.558 c -4.166,0 -7.543,3.376 -7.543,7.543 0,4.167 3.377,7.543 7.543,7.543 h 74.558 v 8.584 c 0,9.938 -8.084,18.022 -18.021,18.022 h -2.858 c -10.375,0 -83.96,0 -96.66,0 -9.937,0 -18.022,-8.084 -18.022,-18.022 v -8.584 h 30.831 c 4.166,0 7.543,-3.376 7.543,-7.543 0,-4.167 -3.377,-7.543 -7.543,-7.543 H 188.219 V 392.09 h 73.396 c 4.166,0 7.543,-3.376 7.543,-7.543 0,-4.167 -3.377,-7.543 -7.543,-7.543 h -73.396 v -23.937 h 135.554 z"
                   id="path1776" />
              </g>
            </g>
            <g
               id="g1786">
              <g
                 id="g1784">
                <path
                   inkscape:connector-curvature="0"
                   d="m 300.667,197.35 c -12.036,-12.036 -28.039,-18.664 -45.06,-18.664 -17.021,0 -33.023,6.629 -45.06,18.664 -2.946,2.947 -2.946,7.722 0,10.668 2.946,2.945 7.722,2.945 10.667,0 9.186,-9.187 21.401,-14.246 34.392,-14.246 12.992,0 25.207,5.059 34.393,14.246 1.473,1.471 3.403,2.209 5.334,2.209 1.93,0 3.861,-0.736 5.333,-2.209 2.947,-2.947 2.947,-7.722 10e-4,-10.668 z"
                   id="path1782" />
              </g>
            </g>
            <g
               id="g1792">
              <g
                 id="g1790">
                <path
                   inkscape:connector-curvature="0"
                   d="m 365.558,132.459 c -60.767,-60.767 -159.127,-60.775 -219.901,0 -2.946,2.947 -2.946,7.722 0,10.668 2.946,2.945 7.722,2.945 10.667,0 26.519,-26.52 61.779,-41.126 99.283,-41.126 37.504,0 72.764,14.604 99.283,41.126 1.472,1.472 3.402,2.209 5.333,2.209 1.93,0 3.861,-0.736 5.333,-2.209 2.947,-2.947 2.947,-7.723 0.002,-10.668 z"
                   id="path1788" />
              </g>
            </g>
            <g
               id="g1798">
              <g
                 id="g1796">
                <path
                   inkscape:connector-curvature="0"
                   d="m 334.333,163.683 c -21.028,-21.028 -48.987,-32.609 -78.726,-32.609 -29.739,0 -57.698,11.581 -78.726,32.609 -2.946,2.947 -2.946,7.722 0,10.668 1.472,1.472 3.403,2.209 5.333,2.209 1.93,0 3.861,-0.736 5.333,-2.209 18.18,-18.18 42.35,-28.191 68.059,-28.191 25.709,0 49.88,10.011 68.059,28.191 2.945,2.945 7.721,2.945 10.667,0 2.947,-2.947 2.947,-7.722 0.001,-10.668 z"
                   id="path1794" />
              </g>
            </g>
            <g
               id="g1804">
              <g
                 id="g1802">
                <path
                   inkscape:connector-curvature="0"
                   d="m 285.798,245.189 c -0.772,-4.092 -4.718,-6.787 -8.811,-6.013 -4.093,0.773 -6.786,4.718 -6.013,8.812 0.16,0.848 0.241,1.723 0.241,2.599 0,7.663 -6.235,13.897 -13.897,13.897 -7.664,0 -13.897,-6.235 -13.897,-13.897 0,-7.49 6.087,-13.722 13.567,-13.894 4.165,-0.097 7.464,-3.549 7.368,-7.715 -0.096,-4.165 -3.583,-7.444 -7.714,-7.367 -15.609,0.359 -28.308,13.357 -28.308,28.976 0,15.982 13.002,28.983 28.983,28.983 15.981,0 28.983,-13.002 28.983,-28.983 0,-1.814 -0.169,-3.629 -0.502,-5.398 z"
                   id="path1800" />
              </g>
            </g>
            <g
               id="g1806" />
            <g
               id="g1808" />
            <g
               id="g1810" />
            <g
               id="g1812" />
            <g
               id="g1814" />
            <g
               id="g1816" />
            <g
               id="g1818" />
            <g
               id="g1820" />
            <g
               id="g1822" />
            <g
               id="g1824" />
            <g
               id="g1826" />
            <g
               id="g1828" />
            <g
               id="g1830" />
            <g
               id="g1832" />
            <g
               id="g1834" />
          </g>
        </g>
      </g>
      <g
         transform="matrix(0.82533021,0,0,0.82533021,111.08586,-147.31541)"
         id="g2147">
        <path
           d="m 131.22923,240.5057 a 19.471033,19.471033 0 0 1 -14.34743,23.49045 19.471033,19.471033 0 0 1 -23.501653,-14.32907 19.471033,19.471033 0 0 1 14.310713,-23.51284 19.471033,19.471033 0 0 1 23.52401,14.29235"
           sodipodi:open="true"
           sodipodi:end="6.0433596"
           sodipodi:start="6.0464838"
           sodipodi:ry="19.471033"
           sodipodi:rx="19.471033"
           sodipodi:cy="245.07161"
           sodipodi:cx="112.30111"
           sodipodi:type="arc"
           id="path1956"
           style="opacity:1;fill:#55ffdd;fill-opacity:1;stroke:#1c241f;stroke-width:0;stroke-linecap:round;stroke-linejoin:round;stroke-miterlimit:4;stroke-dasharray:none;stroke-dashoffset:0;stroke-opacity:1;paint-order:stroke markers fill" />
        <g
           id="g1612"
           transform="matrix(0.03868396,0,0,0.03868396,102.39802,235.16852)">
          <g
             id="g1501">
            <g
               id="g1499">
              <path
                 id="path1497"
                 d="m 450.948,295 c -0.156,-0.156 -18.248,-18.257 -18.368,-18.379 -2.941,-2.941 -7.709,-2.941 -10.65,0 -2.941,2.941 -2.941,7.709 0,10.64 l 18.097,18.108 c 3.142,3.393 4.868,7.809 4.868,12.446 v 8.331 c 0,4.517 -3.674,8.191 -8.191,8.191 -13.218,0 -142.237,0 -164.717,0 7.612,-12.362 6.074,-28.809 -4.634,-39.517 l -74.598,-74.598 h 110.412 l 29.651,52.395 c 6.631,11.7 23.46,11.703 30.092,0 l 16.04,-28.336 21.691,21.691 c 1.466,1.476 3.393,2.208 5.32,2.208 1.927,0 3.854,-0.733 5.32,-2.208 2.941,-2.941 2.941,-7.709 0,-10.65 L 386.639,230.68 c 11.94,-19.756 12.402,-25.298 20.356,-30.444 58.192,-37.719 67.021,-119.826 17.284,-168.87 -42.566,-41.973 -110.774,-41.875 -153.262,0.612 -20.205,20.195 -31.558,46.935 -31.969,75.281 -0.542,37.701 18.037,72.47 49.705,92.987 2.088,1.355 3.955,3.021 5.501,4.918 -37.387,0 -114.715,0 -129.885,0 -1.582,0.04 -2.308,-0.11 -3.665,0.212 -8.27,0.927 -15.594,5.169 -19.592,9.765 L 61.435,294.82 c -12.517,12.517 -12.517,32.883 0,45.389 4.738,4.738 10.589,7.679 16.712,8.823 v 130.216 c 0,18.057 14.685,32.752 32.732,32.752 13.152,0 279.327,0 290.253,0 18.047,0 32.742,-14.695 32.742,-32.742 V 349.393 h 2.831 c 12.818,0 23.247,-10.429 23.247,-23.247 v -8.331 c 0,-8.501 -3.192,-16.611 -9.004,-22.815 z M 254.104,107.481 c 0.723,-50.247 42.177,-91.682 92.425,-92.385 23.975,-0.533 48.581,8.644 67.181,26.991 42.892,42.318 35.201,113.034 -14.906,145.513 -5.24,3.403 -9.606,8.01 -12.617,13.34 -25.074,44.294 18.229,-32.217 -36.376,64.26 -0.87,1.523 -3.035,1.513 -3.884,0 -39.991,-70.64 -38.74,-70.945 -48.983,-77.589 -27.292,-17.687 -43.312,-47.639 -42.84,-80.13 z M 243.856,496.944 H 214.293 V 355.667 c 0,-11.745 -9.556,-21.301 -21.301,-21.301 H 143.19 c -11.746,0 -21.302,9.557 -21.302,21.301 v 77.85 c 0,4.159 3.371,7.528 7.528,7.528 4.157,0 7.528,-3.37 7.528,-7.528 v -77.85 c 0,-3.444 2.801,-6.245 6.245,-6.245 h 49.801 c 3.444,0 6.245,2.801 6.245,6.245 V 496.944 H 136.944 V 463.63 c 0,-4.159 -3.371,-7.528 -7.528,-7.528 -4.158,0 -7.528,3.37 -7.528,7.528 v 33.314 H 110.88 c -9.746,0 -17.676,-7.94 -17.676,-17.696 V 348.299 c 13.552,-3.954 13.624,-9.829 71.186,-65.645 l 57.565,57.555 c 6.063,6.063 13.952,9.184 21.902,9.375 v 147.36 z m 0,-162.416 c -4.095,-0.191 -8.13,-1.837 -11.252,-4.958 -65.927,-64.808 -62.48,-65.093 -68.214,-65.093 -1.987,0 -3.905,0.793 -5.32,2.198 -65.662,65.469 -62.933,63.465 -65.866,65.263 -4.537,2.861 -10.138,3.373 -15.056,1.526 -2.208,-0.823 -4.286,-2.118 -6.063,-3.895 -6.655,-6.645 -6.655,-17.465 0,-24.11 49.873,-49.873 79.843,-79.843 79.958,-79.958 3.018,-3.272 7.463,-5.28 12.336,-5.28 0.209,0.041 6.654,-0.388 11.985,4.858 0.805,0.867 56.319,56.35 80.34,80.38 5.802,5.802 6.534,14.785 2.208,21.39 -3.16,4.893 -8.856,7.975 -15.056,7.679 z m 157.277,162.416 h -141.89 v -147.55 h 159.575 v 129.864 0 c 0.001,9.746 -7.939,17.686 -17.685,17.686 z"
                 inkscape:connector-curvature="0" />
            </g>
          </g>
          <g
             id="g1507">
            <g
               id="g1505">
              <path
                 id="path1503"
                 d="m 341.755,366.812 h -4.479 c -28.155,0 -51.062,22.905 -51.062,51.06 0,28.156 22.906,51.062 51.062,51.062 h 4.479 c 28.155,0 51.061,-22.905 51.061,-51.062 0.001,-28.154 -22.905,-51.06 -51.061,-51.06 z m -39.687,58.587 c 0.123,0 29.788,0.002 29.92,0.002 0.154,26.712 -0.341,25.941 0.432,28.141 -15.074,-2.043 -27.212,-13.441 -30.352,-28.143 z m 29.92,-15.054 c -0.133,0 -29.796,0.002 -29.92,0.002 3.141,-14.701 15.278,-26.098 30.351,-28.142 -0.797,2.268 -0.283,2.213 -0.431,28.14 z m 14.624,43.197 c 0.796,-2.263 0.282,-2.06 0.432,-28.141 0.133,0 29.796,-0.002 29.919,-0.002 -3.14,14.701 -15.278,26.099 -30.351,28.143 z m 0.433,-43.197 c -0.154,-26.734 0.342,-25.939 -0.432,-28.14 15.072,2.044 27.211,13.441 30.35,28.142 -0.122,0 -29.786,-0.002 -29.918,-0.002 z"
                 inkscape:connector-curvature="0" />
            </g>
          </g>
          <g
             id="g1513">
            <g
               id="g1511">
              <circle
                 id="circle1509"
                 r="8.1459999"
                 cy="421.69299"
                 cx="181.136" />
            </g>
          </g>
          <g
             id="g1519">
            <g
               id="g1517">
              <path
                 id="path1515"
                 d="m 389.855,113.421 c -23.152,-23.151 -60.824,-23.151 -83.978,0 -5.074,5.074 -1.41,13.708 5.678,13.708 2.055,0 4.11,-0.784 5.678,-2.352 16.892,-16.891 44.376,-16.891 61.267,0 3.136,3.135 8.22,3.135 11.355,0 3.136,-3.136 3.136,-8.22 0,-11.356 z"
                 inkscape:connector-curvature="0" />
            </g>
          </g>
          <g
             id="g1525">
            <g
               id="g1523">
              <path
                 id="path1521"
                 d="m 375.291,131.729 c -15.122,-15.12 -39.728,-15.12 -54.852,0 -3.136,3.136 -3.137,8.22 0,11.355 3.136,3.137 8.22,3.137 11.355,0.001 8.863,-8.86 23.28,-8.86 32.141,0 3.137,3.136 8.22,3.136 11.355,-0.001 3.138,-3.135 3.138,-8.219 10e-4,-11.355 z"
                 inkscape:connector-curvature="0" />
            </g>
          </g>
          <g
             id="g1531">
            <g
               id="g1529">
              <path
                 id="path1527"
                 d="M 404.247,99.659 C 389.542,83.01 369.841,73.481 348.773,72.829 c -21.182,-0.653 -41.386,7.553 -56.946,23.112 -3.137,3.136 -3.137,8.22 0,11.356 3.137,3.136 8.221,3.136 11.355,0 12.393,-12.393 28.405,-18.932 45.093,-18.417 16.591,0.514 32.194,8.117 43.935,21.41 2.922,3.307 7.995,3.653 11.334,0.703 3.325,-2.936 3.639,-8.01 0.703,-11.334 z"
                 inkscape:connector-curvature="0" />
            </g>
          </g>
          <g
             id="g1537">
            <g
               id="g1535">
              <path
                 id="path1533"
                 d="m 347.799,23.63 c -47.107,0 -85.417,38.238 -85.417,85.553 0,29.761 15.873,57.813 41.429,73.204 3.797,2.29 8.732,1.065 11.021,-2.734 2.288,-3.799 1.064,-8.734 -2.736,-11.021 -21.668,-13.052 -34.998,-37.451 -33.544,-63.371 2.128,-38.254 34.842,-67.593 73.17,-65.461 36.768,2.046 65.57,32.463 65.57,69.247 0,42.597 -37.817,75.12 -79.991,68.688 -4.387,-0.674 -8.481,2.343 -9.149,6.726 -0.669,4.384 2.342,8.481 6.726,9.149 51.821,7.906 98.474,-32.082 98.474,-84.563 C 433.351,61.941 395.112,23.63 347.799,23.63 Z"
                 inkscape:connector-curvature="0" />
            </g>
          </g>
          <g
             id="g1539" />
          <g
             id="g1541" />
          <g
             id="g1543" />
          <g
             id="g1545" />
          <g
             id="g1547" />
          <g
             id="g1549" />
          <g
             id="g1551" />
          <g
             id="g1553" />
          <g
             id="g1555" />
          <g
             id="g1557" />
          <g
             id="g1559" />
          <g
             id="g1561" />
          <g
             id="g1563" />
          <g
             id="g1565" />
          <g
             id="g1567" />
        </g>
      </g>
    </g>
  </g>
</svg>
